<svg xmlns="http://www.w3.org/2000/svg" viewBox="0 0 512 512" height="4em" role="img" aria-hidden="true">
<path d="M386.37156,119.61552l0,0L377.03,100.32491l-.00063.0006L341.68059,27.32932a16.85833,16.85833,0,0,0-22.495-7.81585l-13.48231,6.52888a16.8578,16.8578,0,0,0-7.817,22.49459l2.28919,4.72723L259.74237,95.313l-50.25491,52.26228a6.372,6.372,0,0,0,9.18595,8.83334l50.192-52.19775L306.097,65.49212l82.69114,170.75762L416.52008,293.517,226.95558,311.955,174.08563,202.7771l23.92894-24.88355a6.372,6.372,0,0,0-9.1859-8.83337l-26.216,27.2635-83.54683,40.458a14.97156,14.97156,0,0,0-7.02331,19.79855L47.108,268.65487a16.65948,16.65948,0,0,0-7.72437,22.22985l34.92177,72.11444a16.65962,16.65962,0,0,0,22.2302,7.72508l24.93452-12.07467a14.97216,14.97216,0,0,0,19.88772,6.76682l4.7436-2.29711,48.34754,99.839a37.94762,37.94762,0,1,0,68.30751-33.07825l-48.34754-99.839,10.49647-5.083,197.53514-19.21315,1.92907,3.98358a16.85779,16.85779,0,0,0,22.495,7.81587l13.48231-6.52887a16.85833,16.85833,0,0,0,7.817-22.49457l-9.65871-19.94549a6.37152,6.37152,0,0,0-11.469,5.55394l9.6587,19.94549a4.10078,4.10078,0,0,1-1.90187,5.47158l-13.48231,6.52888a4.10075,4.10075,0,0,1-5.47192-1.90079l-89.6986-185.23011,0,0L309.35535,42.983a4.1008,4.1008,0,0,1,1.90187-5.47158l13.48231-6.52887a4.10079,4.10079,0,0,1,5.472,1.90076l36.67982,75.74485,1.15016,2.37511L434.07728,247.369a6.37155,6.37155,0,0,0,11.46909-5.554l-21.71265-44.83721a43.29593,43.29593,0,0,0,14.53933-54.54943l-.191-.39453A43.295,43.295,0,0,0,386.37156,119.61552ZM115.90691,347.185,90.98158,359.25517a3.90263,3.90263,0,0,1-5.20712-1.81L50.85269,285.33071a3.903,3.903,0,0,1,1.8092-5.20678l24.92533-12.07021ZM251.2885,435.4344a25.20452,25.20452,0,1,1-45.36933,21.97032L157.6816,357.7928l45.36933-21.97032ZM214.64379,315.76867,135.80386,353.9473a2.22,2.22,0,0,1-2.962-1.0292L83.59049,251.21268a2.21981,2.21981,0,0,1,1.02963-2.96124l78.83993-38.17863ZM418.19424,185.33214l-26.18393-54.07055a30.54171,30.54171,0,0,1,34.70219,16.32732l.19069.39378.00075-.00036A30.54256,30.54256,0,0,1,418.19424,185.33214Z" transform="translate(-37.72115 -17.83114)"></path>
</svg>