<svg xmlns="http://www.w3.org/2000/svg" viewBox="0 0 409.53559 51.6816">
<defs>
<style>.a,.b{fill:#333;}.b{fill-rule:evenodd;}</style>
</defs>
<path class="a" d="M265.81508,21.95554a4.18075,4.18075,0,0,0,1.66366-.31425,3.4935,3.4935,0,0,0,1.2422-.87927,3.85088,3.85088,0,0,0,.77391-1.351,5.35256,5.35256,0,0,0,.26618-1.72774V8.56338h2.021v9.11994a6.89078,6.89078,0,0,1-.4116,2.4083,5.57413,5.57413,0,0,1-1.18551,1.92153,5.401,5.401,0,0,1-1.87809,1.27208,6.9662,6.9662,0,0,1-4.98358,0,5.45473,5.45473,0,0,1-1.88549-1.27208,5.54294,5.54294,0,0,1-1.188-1.92153,6.83511,6.83511,0,0,1-.41407-2.4083V8.56338h2.021v9.10947a5.35264,5.35264,0,0,0,.26619,1.72774,3.81788,3.81788,0,0,0,.77637,1.35095,3.53581,3.53581,0,0,0,1.24466.88451A4.17051,4.17051,0,0,0,265.81508,21.95554Z"></path>
<path class="a" d="M276.71883,8.63147a1.01274,1.01274,0,0,1,.29823.27728L285.71,20.21732c-.02218-.18146-.037-.35768-.0419-.52867-.0074-.171-.01233-.33674-.01233-.49756V8.56338h1.782V23.56806H286.41a.86567.86567,0,0,1-.40175-.0838,1.02925,1.02925,0,0,1-.3204-.28282l-8.68061-11.2978c.01479.17438.02464.34537.032.513s.00986.321.00986.46058V23.56806h-1.7795V8.56338h1.04749A.90726.90726,0,0,1,276.71883,8.63147Z"></path>
<path class="a" d="M293.5107,23.56806h-2.03336V8.56338h2.03336Z"></path>
<path class="a" d="M295.793,8.56338h1.62176a.68046.68046,0,0,1,.44118.13618.85051.85051,0,0,1,.2514.34536L302.34659,19.631a7.46423,7.46423,0,0,1,.26865.77483c.07887.27913.15774.569.23414.86911.06408-.30008.13063-.59.20457-.86911a6.07347,6.07347,0,0,1,.25633-.77483l4.21953-10.58612a.88459.88459,0,0,1,.2514-.32965.65574.65574,0,0,1,.44118-.15189H309.854l-6.11488,15.00468h-1.83126Z"></path>
<path class="a" d="M321.01655,8.56338V10.2178h-7.20426v4.9839h5.83143v1.59156h-5.83143v5.12038h7.20426v1.65442h-9.24748V8.56338Z"></path>
<path class="a" d="M326.16773,17.30653v6.26153h-2.021V8.56338h4.24171a9.28343,9.28343,0,0,1,2.45975.28776,4.69334,4.69334,0,0,1,1.71049.83244,3.333,3.333,0,0,1,1.00066,1.31429,4.38257,4.38257,0,0,1,.32534,1.72251,4.317,4.317,0,0,1-.2514,1.48682,3.91912,3.91912,0,0,1-.72708,1.24066,4.34065,4.34065,0,0,1-1.16333.93719,5.73053,5.73053,0,0,1-1.55521.58629,2.13834,2.13834,0,0,1,.67039.63866l4.37728,5.95806h-1.80168a.88727.88727,0,0,1-.81581-.42917l-3.89667-5.36129a1.12137,1.12137,0,0,0-.387-.36108,1.38811,1.38811,0,0,0-.62849-.11Zm0-1.47634h2.12456a5.157,5.157,0,0,0,1.56507-.21474,3.17691,3.17691,0,0,0,1.13129-.60723,2.54956,2.54956,0,0,0,.68765-.9372,3.07342,3.07342,0,0,0,.22921-1.2043,2.39347,2.39347,0,0,0-.88482-2.02073,4.27527,4.27527,0,0,0-2.63228-.68056h-2.22068Z"></path>
<path class="a" d="M345.10881,10.90884a.80278.80278,0,0,1-.19717.23568.45294.45294,0,0,1-.27358.07826.72876.72876,0,0,1-.41407-.17777,6.28295,6.28295,0,0,0-.59645-.39281,4.88444,4.88444,0,0,0-.86757-.3925,3.7544,3.7544,0,0,0-1.23234-.17807,3.62026,3.62026,0,0,0-1.20276.18331,2.553,2.553,0,0,0-.875.49725,2.06617,2.06617,0,0,0-.5299.73817,2.34974,2.34974,0,0,0-.17746.91625,1.6874,1.6874,0,0,0,.31055,1.04194,2.65027,2.65027,0,0,0,.81581.70675,6.23394,6.23394,0,0,0,1.151.50772q.64328.21489,1.32106.44518c.44858.15343.88975.32627,1.31861.5182a4.62365,4.62365,0,0,1,1.151.7277,3.31737,3.31737,0,0,1,.81827,1.07861,3.60869,3.60869,0,0,1,.30808,1.57062,5.04513,5.04513,0,0,1-.33519,1.84789,4.27674,4.27674,0,0,1-.97848,1.50284,4.56924,4.56924,0,0,1-1.58233,1.005,5.80259,5.80259,0,0,1-2.12948.36662,6.49808,6.49808,0,0,1-2.65446-.529,6.22017,6.22017,0,0,1-2.04815-1.4292l.58659-.96339A.76993.76993,0,0,1,337,20.62061a.47613.47613,0,0,1,.26619-.07857.82868.82868,0,0,1,.50279.23538,8.49238,8.49238,0,0,0,.70736.51851,5.40044,5.40044,0,0,0,1.02531.5182,4.05184,4.05184,0,0,0,1.47142.23568,3.86587,3.86587,0,0,0,1.289-.199,2.71738,2.71738,0,0,0,.9563-.5601,2.41782,2.41782,0,0,0,.60385-.86387,2.916,2.916,0,0,0,.2095-1.12051,1.87238,1.87238,0,0,0-.31055-1.115,2.5419,2.5419,0,0,0-.81088-.72769,5.69241,5.69241,0,0,0-1.14608-.49756c-.42886-.13617-.87-.27574-1.31861-.41869a13.395,13.395,0,0,1-1.32106-.49756,4.28314,4.28314,0,0,1-1.14608-.73293,3.34566,3.34566,0,0,1-.81088-1.12544,3.9922,3.9922,0,0,1-.30809-1.67013,3.99847,3.99847,0,0,1,1.20277-2.85872,4.34907,4.34907,0,0,1,1.45169-.92117,5.295,5.295,0,0,1,1.98407-.34567,6.3573,6.3573,0,0,1,2.29216.39773,5.30675,5.30675,0,0,1,1.81154,1.15193Z"></path>
<path class="a" d="M350.93285,23.56806h-2.03336V8.56338h2.03336Z"></path>
<path class="a" d="M367.95641,16.0708a8.4208,8.4208,0,0,1-.53484,3.06822,6.62984,6.62984,0,0,1-3.84243,3.88989,8.11657,8.11657,0,0,1-3.01431.53915h-5.61454V8.56338h5.61454a8.11657,8.11657,0,0,1,3.01431.53915,6.67839,6.67839,0,0,1,2.334,1.52872,6.82168,6.82168,0,0,1,1.50838,2.37164A8.4215,8.4215,0,0,1,367.95641,16.0708Zm-2.08266,0a7.53057,7.53057,0,0,0-.37709-2.47115A5.20915,5.20915,0,0,0,364.427,11.757a4.54517,4.54517,0,0,0-1.676-1.15193,5.78249,5.78249,0,0,0-2.18617-.39773h-3.57132V21.92411h3.57132a5.78249,5.78249,0,0,0,2.18617-.39773,4.57352,4.57352,0,0,0,1.676-1.1467,5.15444,5.15444,0,0,0,1.06967-1.83773A7.52786,7.52786,0,0,0,365.87375,16.0708Z"></path>
<path class="a" d="M382.62619,23.56806h-1.57a.66878.66878,0,0,1-.43871-.13618.80775.80775,0,0,1-.2514-.34536l-1.40487-3.62308h-6.731l-1.40487,3.62308a.78442.78442,0,0,1-.2514.33489.66318.66318,0,0,1-.43871.14665h-1.57l5.999-15.00468h2.06294Zm-9.83161-5.57049h5.60222l-2.35624-6.1044a11.75607,11.75607,0,0,1-.451-1.4138c-.07641.28651-.15035.54993-.22429.79054q-.11091.36138-.21443.63373Z"></path>
<path class="a" d="M397.52519,16.0708a8.47293,8.47293,0,0,1-.53237,3.06822,6.84209,6.84209,0,0,1-1.50838,2.36641,6.71348,6.71348,0,0,1-2.33406,1.52348,8.1296,8.1296,0,0,1-3.01677.53915h-5.61208V8.56338h5.61208a8.1296,8.1296,0,0,1,3.01677.53915,6.67834,6.67834,0,0,1,2.33406,1.52872,6.89348,6.89348,0,0,1,1.50838,2.37164A8.47365,8.47365,0,0,1,397.52519,16.0708Zm-2.08265,0a7.5303,7.5303,0,0,0-.3771-2.47115,5.20452,5.20452,0,0,0-1.06721-1.84266,4.5653,4.5653,0,0,0-1.676-1.15193,5.78637,5.78637,0,0,0-2.18864-.39773h-3.57132V21.92411h3.57132a5.78637,5.78637,0,0,0,2.18864-.39773,4.59392,4.59392,0,0,0,1.676-1.1467,5.14988,5.14988,0,0,0,1.06721-1.83773A7.52759,7.52759,0,0,0,395.44254,16.0708Z"></path>
<path class="a" d="M409.53559,8.56338V10.2178h-7.20427v4.9839h5.8339v1.59156h-5.8339v5.12038h7.20427v1.65442h-9.245V8.56338Z"></path>
<path class="a" d="M272.9873,35.63144a8.42083,8.42083,0,0,1-.53483,3.06822A6.62991,6.62991,0,0,1,268.61,42.58954a8.11637,8.11637,0,0,1-3.01431.53915h-5.61454V28.124h5.61454a8.11637,8.11637,0,0,1,3.01431.53915,6.67825,6.67825,0,0,1,2.334,1.52872,6.8217,6.8217,0,0,1,1.50839,2.37164A8.42147,8.42147,0,0,1,272.9873,35.63144Zm-2.08265,0a7.5303,7.5303,0,0,0-.3771-2.47115,5.20915,5.20915,0,0,0-1.06967-1.84266,4.54517,4.54517,0,0,0-1.676-1.15193,5.7825,5.7825,0,0,0-2.18617-.39774H262.0244V41.48475h3.57132a5.7825,5.7825,0,0,0,2.18617-.39774,4.57338,4.57338,0,0,0,1.676-1.14669,5.15444,5.15444,0,0,0,1.06967-1.83773A7.52767,7.52767,0,0,0,270.90465,35.63144Z"></path>
<path class="a" d="M289.688,35.63144a8.632,8.632,0,0,1-.53483,3.09441,7.07763,7.07763,0,0,1-1.50592,2.4237,6.74769,6.74769,0,0,1-2.34145,1.57617,8.411,8.411,0,0,1-6.036,0,6.74044,6.74044,0,0,1-2.33406-1.57617,7.04587,7.04587,0,0,1-1.50838-2.4237,9.21815,9.21815,0,0,1,0-6.18851,7.10509,7.10509,0,0,1,1.50838-2.42925,6.76958,6.76958,0,0,1,2.33406-1.58633,8.33827,8.33827,0,0,1,6.036,0,6.77662,6.77662,0,0,1,2.34145,1.58633,7.13733,7.13733,0,0,1,1.50592,2.42925A8.63259,8.63259,0,0,1,289.688,35.63144Zm-2.08265,0a7.62539,7.62539,0,0,0-.3771-2.48163,5.25078,5.25078,0,0,0-1.06967-1.85837A4.63463,4.63463,0,0,0,284.485,30.1238a6.09773,6.09773,0,0,0-4.38713,0,4.66268,4.66268,0,0,0-1.68091,1.16764,5.18645,5.18645,0,0,0-1.07461,1.85837,8.33711,8.33711,0,0,0,0,4.958,5.19347,5.19347,0,0,0,1.07461,1.85344,4.605,4.605,0,0,0,1.68091,1.1624,6.17161,6.17161,0,0,0,4.38713,0,4.57733,4.57733,0,0,0,1.67352-1.1624,5.25811,5.25811,0,0,0,1.06967-1.85344A7.57445,7.57445,0,0,0,287.60533,35.63144Z"></path>
<path class="a" d="M298.73336,37.51631v5.61238h-2.021V28.124h4.429a8.30677,8.30677,0,0,1,2.477.32965,4.76039,4.76039,0,0,1,1.745.9372,3.7749,3.7749,0,0,1,1.03024,1.46587,5.164,5.164,0,0,1,.34012,1.91629,4.84594,4.84594,0,0,1-.36724,1.91629,4.12135,4.12135,0,0,1-1.07213,1.49729,4.96653,4.96653,0,0,1-1.75486.97879,7.52264,7.52264,0,0,1-2.39813.35091Zm0-1.61252h2.408a4.67689,4.67689,0,0,0,1.5355-.23045,3.11826,3.11826,0,0,0,1.114-.6439,2.65663,2.65663,0,0,0,.68025-.98957,3.34711,3.34711,0,0,0,.23168-1.26684,2.88138,2.88138,0,0,0-.88482-2.24071,3.86048,3.86048,0,0,0-2.67664-.80626h-2.408Z"></path>
<path class="a" d="M323.23723,35.63144a8.68589,8.68589,0,0,1-.53484,3.09441,7.08314,7.08314,0,0,1-1.50838,2.4237,6.73759,6.73759,0,0,1-2.339,1.57617,8.41765,8.41765,0,0,1-6.03846,0,6.74044,6.74044,0,0,1-2.33406-1.57617,7.12067,7.12067,0,0,1-1.50838-2.4237,9.25844,9.25844,0,0,1,0-6.18851,7.181,7.181,0,0,1,1.50838-2.42925,6.76958,6.76958,0,0,1,2.33406-1.58633,8.34485,8.34485,0,0,1,6.03846,0,6.76651,6.76651,0,0,1,2.339,1.58633,7.14291,7.14291,0,0,1,1.50838,2.42925A8.68652,8.68652,0,0,1,323.23723,35.63144Zm-2.08512,0a7.62539,7.62539,0,0,0-.3771-2.48163,5.24639,5.24639,0,0,0-1.06721-1.85837,4.64387,4.64387,0,0,0-1.676-1.16764,6.09777,6.09777,0,0,0-4.38713,0,4.6839,4.6839,0,0,0-1.68091,1.16764,5.21841,5.21841,0,0,0-1.07214,1.85837,8.3369,8.3369,0,0,0,0,4.958,5.22559,5.22559,0,0,0,1.07214,1.85344,4.62573,4.62573,0,0,0,1.68091,1.1624,6.17164,6.17164,0,0,0,4.38713,0,4.58646,4.58646,0,0,0,1.676-1.1624,5.25366,5.25366,0,0,0,1.06721-1.85344A7.57445,7.57445,0,0,0,321.15211,35.63144Z"></path>
<path class="a" d="M328.24053,36.86717v6.26152h-2.021V28.124h4.24172a9.28352,9.28352,0,0,1,2.45975.28775,4.69343,4.69343,0,0,1,1.71049.83245,3.333,3.333,0,0,1,1.00066,1.31429,4.3827,4.3827,0,0,1,.32534,1.7225,4.31688,4.31688,0,0,1-.2514,1.48682,3.91928,3.91928,0,0,1-.72708,1.24066,4.34088,4.34088,0,0,1-1.16333.9372,5.73019,5.73019,0,0,1-1.55521.58628,2.13856,2.13856,0,0,1,.67039.63866l4.37728,5.95806h-1.80169a.88729.88729,0,0,1-.81581-.42916l-3.89666-5.3613a1.12142,1.12142,0,0,0-.387-.36107,1.388,1.388,0,0,0-.6285-.11Zm0-1.47634h2.12456a5.157,5.157,0,0,0,1.56507-.21474,3.17685,3.17685,0,0,0,1.13129-.60724,2.54958,2.54958,0,0,0,.68764-.93719,3.07329,3.07329,0,0,0,.22922-1.20431,2.39348,2.39348,0,0,0-.88482-2.02073,4.27527,4.27527,0,0,0-2.63228-.68056h-2.22068Z"></path>
<path class="a" d="M349.17307,28.124v1.70679h-4.848V43.12869h-2.03089V29.83081h-4.87021V28.124Z"></path>
<path class="a" d="M364.22,35.63144a8.68611,8.68611,0,0,1-.53483,3.09441,7.083,7.083,0,0,1-1.50839,2.4237,6.73754,6.73754,0,0,1-2.339,1.57617,8.41768,8.41768,0,0,1-6.03847,0,6.74049,6.74049,0,0,1-2.334-1.57617,7.12054,7.12054,0,0,1-1.50839-2.4237,9.25844,9.25844,0,0,1,0-6.18851,7.18086,7.18086,0,0,1,1.50839-2.42925,6.76963,6.76963,0,0,1,2.334-1.58633,8.34488,8.34488,0,0,1,6.03847,0,6.76647,6.76647,0,0,1,2.339,1.58633,7.14278,7.14278,0,0,1,1.50839,2.42925A8.68674,8.68674,0,0,1,364.22,35.63144Zm-2.08512,0a7.62566,7.62566,0,0,0-.37709-2.48163,5.24654,5.24654,0,0,0-1.06721-1.85837,4.644,4.644,0,0,0-1.676-1.16764,6.09777,6.09777,0,0,0-4.38713,0,4.684,4.684,0,0,0-1.68091,1.16764,5.21841,5.21841,0,0,0-1.07214,1.85837,8.33711,8.33711,0,0,0,0,4.958,5.22559,5.22559,0,0,0,1.07214,1.85344,4.62581,4.62581,0,0,0,1.68091,1.1624,6.17164,6.17164,0,0,0,4.38713,0,4.58658,4.58658,0,0,0,1.676-1.1624,5.25381,5.25381,0,0,0,1.06721-1.85344A7.57472,7.57472,0,0,0,362.13483,35.63144Z"></path>
<path class="a" d="M237.49681,51.6816H0V0H237.49681ZM.8566,50.825H236.64021V.8566H.8566Z"></path>
<path class="b" d="M74.40672,25.91183a7.51726,7.51726,0,0,0,1.66247.72255,7.03893,7.03893,0,0,0,2.16.32452,8.7888,8.7888,0,0,0,5.60892-1.96863Q86.32034,23.0247,86.321,18.495q0-4.829-2.209-7.09536-2.20892-2.26407-6.67744-2.26407H74.40672V25.91183M69.34429,9.13558H64.42883V8.34107H78.57668q6.00686,0,9.55538,2.29011,3.54987,2.287,3.54992,7.4153a8.08742,8.08742,0,0,1-3.74744,7.2913,15.99746,15.99746,0,0,1-8.86192,2.41409,10.58039,10.58039,0,0,1-4.6659-.845V42.54571h5.06393v.79295H64.42883v-.79295h4.91546Z"></path>
<path class="b" d="M111.83519,43.29122a7.55128,7.55128,0,0,0,6.25652-2.8014,15.32307,15.32307,0,0,0,3.00343-6.64223,40.84066,40.84066,0,0,0,.76849-8.00772,43.14109,43.14109,0,0,0-.71944-8.08119,14.82561,14.82561,0,0,0-2.95456-6.56874,7.65736,7.65736,0,0,0-6.35444-2.79986,7.55137,7.55137,0,0,0-6.25493,2.79986,15.32691,15.32691,0,0,0-3.00343,6.64529,40.79317,40.79317,0,0,0-.76849,8.00464,43.13375,43.13375,0,0,0,.71954,8.08272,14.8018,14.8018,0,0,0,2.95447,6.56723,7.65323,7.65323,0,0,0,6.35284,2.8014m0-35.69566q6.30552,0,10.99744,5.35481a18.90052,18.90052,0,0,1,4.69047,12.8895,18.99425,18.99425,0,0,1-4.64151,12.91706,14.19877,14.19877,0,0,1-11.0464,5.32878q-6.30313,0-10.99426-5.3548a18.8926,18.8926,0,0,1-4.692-12.891,18.99179,18.99179,0,0,1,4.64142-12.914A14.202,14.202,0,0,1,111.83519,7.59556Z"></path>
<path class="b" d="M141.08306,24.97037h2.48151q4.61769,0,6.94989-1.81708,2.33295-1.8163,2.33295-5.99929a8.959,8.959,0,0,0-1.78646-5.80179q-1.7865-2.21589-6.6024-2.21663h-3.37549V24.97037M136.01914,9.13558h-4.96442V8.34107H146.294a17.6015,17.6015,0,0,1,8.61394,1.84158q3.30195,1.84158,3.30195,6.97135a6.14406,6.14406,0,0,1-3.27588,5.8263,20.352,20.352,0,0,1-7.348,2.29011q4.7165.496,6.826,2.10948,2.11025,1.61423,2.656,6.281l.695,6.05439a4.00661,4.00661,0,0,0,.9675,2.50748,2.40292,2.40292,0,0,0,1.61351.6215,5.7876,5.7876,0,0,0,2.03593-.496l.297.64446a10.091,10.091,0,0,1-1.762.473,13.37416,13.37416,0,0,1-2.30847.173q-4.11945,0-5.28742-1.912-1.16424-1.91046-1.811-7.0234l-.34748-2.979a7.698,7.698,0,0,0-1.664-4.41949q-1.364-1.53846-5.18642-1.53694h-3.227V42.54571h5.06243v.79295H131.05472v-.79295h4.96442Z"></path>
<path class="a" d="M177.03593,9.13558h-1.04254q-6.75091,0-8.78689,1.71145-2.03442,1.71528-2.03442,7.77045H164.376V8.34107h30.38216V18.61748h-.79447q0-6.007-2.036-7.746-2.032-1.73594-8.73634-1.73593h-1.0915V42.54571h5.113v.79295H171.92295v-.79295h5.113V9.13558"></path>
<path class="b" d="M214.08178,43.29122a7.54829,7.54829,0,0,0,6.25493-2.8014,15.28853,15.28853,0,0,0,3.00343-6.64223,40.72636,40.72636,0,0,0,.7685-8.00772,43.00775,43.00775,0,0,0-.71954-8.08119,14.82325,14.82325,0,0,0-2.95288-6.56874,7.66146,7.66146,0,0,0-6.35444-2.79986,7.54916,7.54916,0,0,0-6.25492,2.79986,15.29148,15.29148,0,0,0-3.00353,6.64529,40.67893,40.67893,0,0,0-.77,8.00464,43.00075,43.00075,0,0,0,.71953,8.08272,14.81847,14.81847,0,0,0,2.95447,6.56723,7.65614,7.65614,0,0,0,6.35443,2.8014m0-35.69566q6.30315,0,10.99586,5.35481a18.89462,18.89462,0,0,1,4.692,12.8895,18.99542,18.99542,0,0,1-4.643,12.91706,14.198,14.198,0,0,1-11.04482,5.32878q-6.30552,0-10.99594-5.3548a18.893,18.893,0,0,1-4.692-12.891,18.99186,18.99186,0,0,1,4.64151-12.914A14.205,14.205,0,0,1,214.08178,7.59556Z"></path>
<path class="a" d="M.42828.4283V51.253h59.1111V.4283ZM42.20591,9.186H40.91549a2.12814,2.12814,0,0,0-1.961,1.01805,6.201,6.201,0,0,0-.62,3.14583V31.8912q0,5.651-3.2515,8.87416-3.25374,3.22388-9.85381,3.22085-6.108,0-9.756-3.29429a11.58144,11.58144,0,0,1-3.64793-9.04869V9.186H7.95382V8.29365H23.58959V9.186H19.5682V30.99723q0,5.45579,1.81243,8.32915c1.20941,1.91661,3.5133,3.181,6.87645,2.87487a8.17357,8.17357,0,0,0,5.86307-2.57943q2.5328-2.57639,2.532-7.43369V13.34992a5.46675,5.46675,0,0,0-.71944-3.19637A2.12318,2.12318,0,0,0,33.81555,9.186h-1.439V8.29365h9.82933ZM50.0835,42.6942a3.567,3.567,0,1,1,1.02105-2.49832A3.40017,3.40017,0,0,1,50.0835,42.6942Z"></path>
</svg>