<svg xmlns="http://www.w3.org/2000/svg" viewBox="0 0 235.43534 72.22169">
<defs>
<style>.a{fill:#333;}</style>
</defs>
<path class="a" d="M89.33668,32.16143a4.25,4.25,0,0,0,1.69119-.31944,3.551,3.551,0,0,0,1.26275-.89383,3.91438,3.91438,0,0,0,.78672-1.3733,5.4414,5.4414,0,0,0,.27059-1.75634V18.54768h2.05448v9.27084a7.005,7.005,0,0,1-.41841,2.44816A5.66647,5.66647,0,0,1,93.77887,32.22a5.49057,5.49057,0,0,1-1.90916,1.29313,7.08158,7.08158,0,0,1-5.06605,0A5.545,5.545,0,0,1,84.887,32.22a5.63477,5.63477,0,0,1-1.20763-1.95332,6.94846,6.94846,0,0,1-.42092-2.44816V18.54768H85.3129v9.2602a5.44139,5.44139,0,0,0,.27059,1.75633,3.88135,3.88135,0,0,0,.78923,1.37331,3.59431,3.59431,0,0,0,1.26526.89914A4.2394,4.2394,0,0,0,89.33668,32.16143Z"></path>
<path class="a" d="M100.42086,18.61689a1.0298,1.0298,0,0,1,.30316.28187l8.83677,11.4957c-.02255-.18447-.03758-.36361-.04259-.53743-.00752-.17381-.01253-.34231-.01253-.50579V18.54768h1.81145v15.253h-1.04478a.88.88,0,0,1-.40839-.08519,1.04624,1.04624,0,0,1-.32571-.2875L100.714,21.94321c.015.17726.02505.35108.03257.52145s.01.32634.01.46821V33.80064H98.94764v-15.253h1.06483A.92232.92232,0,0,1,100.42086,18.61689Z"></path>
<path class="a" d="M117.49059,33.80064h-2.067v-15.253h2.067Z"></path>
<path class="a" d="M119.81065,18.54768h1.64859a.69173.69173,0,0,1,.44848.13843.86455.86455,0,0,1,.25556.35107l4.3094,10.76129a7.58777,7.58777,0,0,1,.27309.78765c.08018.28375.16035.57845.238.88349.06515-.305.13279-.59974.208-.88349a6.17432,6.17432,0,0,1,.26057-.78765l4.28935-10.76129a.89914.89914,0,0,1,.25556-.3351.66655.66655,0,0,1,.44848-.1544h1.65861l-6.216,15.253h-1.86156Z"></path>
<path class="a" d="M145.45157,18.54768v1.68179H138.1281v5.06636H144.056v1.61791H138.1281v5.2051h7.32347v1.6818h-9.4005v-15.253Z"></path>
<path class="a" d="M150.688,27.4355v6.36514h-2.05449v-15.253h4.31191a9.43717,9.43717,0,0,1,2.50045.29251,4.77132,4.77132,0,0,1,1.7388.84622,3.38829,3.38829,0,0,1,1.01721,1.336,4.45522,4.45522,0,0,1,.33073,1.751,4.38843,4.38843,0,0,1-.25556,1.51142,3.9842,3.9842,0,0,1-.73911,1.26119,4.4128,4.4128,0,0,1-1.18258.9527,5.82535,5.82535,0,0,1-1.581.596,2.17361,2.17361,0,0,1,.68148.64923l4.44971,6.05665h-1.83149a.902.902,0,0,1-.82931-.43627l-3.96114-5.45a1.14017,1.14017,0,0,0-.39336-.367,1.411,1.411,0,0,0-.63889-.11181Zm0-1.50077h2.15971a5.24246,5.24246,0,0,0,1.591-.21829,3.22954,3.22954,0,0,0,1.15-.61728,2.59183,2.59183,0,0,0,.699-.95271,3.12424,3.12424,0,0,0,.233-1.22423,2.43311,2.43311,0,0,0-.89946-2.05417,4.346,4.346,0,0,0-2.67584-.69182H150.688Z"></path>
<path class="a" d="M169.94249,20.93194a.816.816,0,0,1-.20044.23959.46047.46047,0,0,1-.2781.07955.74085.74085,0,0,1-.42092-.18071,6.38637,6.38637,0,0,0-.60632-.39931,4.96551,4.96551,0,0,0-.88193-.399,3.81658,3.81658,0,0,0-1.25273-.181,3.68037,3.68037,0,0,0-1.22267.18634,2.59522,2.59522,0,0,0-.88944.50548,2.10036,2.10036,0,0,0-.53867.75038,2.38882,2.38882,0,0,0-.18039.93141,1.71535,1.71535,0,0,0,.31568,1.05919,2.69439,2.69439,0,0,0,.82931.71844,6.33621,6.33621,0,0,0,1.17006.51612q.65392.21844,1.34292.45255c.456.156.90448.33166,1.34043.52678a4.6998,4.6998,0,0,1,1.17005.73973,3.3723,3.3723,0,0,1,.83181,1.09646,3.66835,3.66835,0,0,1,.31319,1.59661,5.12846,5.12846,0,0,1-.34075,1.87847,4.34735,4.34735,0,0,1-.99466,1.52771,4.64523,4.64523,0,0,1-1.60851,1.0216,5.899,5.899,0,0,1-2.16472.37269,6.6056,6.6056,0,0,1-2.69839-.53774,6.323,6.323,0,0,1-2.082-1.45286l.5963-.97932a.78254.78254,0,0,1,.208-.19668.48408.48408,0,0,1,.27059-.07986.84237.84237,0,0,1,.51112.23927,8.629,8.629,0,0,0,.71907.52709,5.48877,5.48877,0,0,0,1.04227.52677,4.11864,4.11864,0,0,0,1.49576.23959,3.92984,3.92984,0,0,0,1.31036-.20232,2.76244,2.76244,0,0,0,.97212-.56936,2.45779,2.45779,0,0,0,.61384-.87817,2.96411,2.96411,0,0,0,.213-1.13905,1.90343,1.90343,0,0,0-.31568-1.13341,2.584,2.584,0,0,0-.8243-.73973,5.78707,5.78707,0,0,0-1.165-.5058c-.43595-.13842-.88443-.28029-1.34043-.42561a13.61854,13.61854,0,0,1-1.34293-.50579,4.35428,4.35428,0,0,1-1.165-.74506,3.4012,3.4012,0,0,1-.8243-1.14406,4.39816,4.39816,0,0,1,0-3.26243,3.99878,3.99878,0,0,1,.90949-1.34136,4.4209,4.4209,0,0,1,1.47572-.93642,5.38259,5.38259,0,0,1,2.0169-.35139,6.46234,6.46234,0,0,1,2.33008.40432,5.39434,5.39434,0,0,1,1.84151,1.171Z"></path>
<path class="a" d="M175.8629,33.80064h-2.067v-15.253h2.067Z"></path>
<path class="a" d="M193.16815,26.17932a8.56,8.56,0,0,1-.54369,3.119,6.73955,6.73955,0,0,1-3.906,3.95425,8.25058,8.25058,0,0,1-3.06418.54808h-5.70745v-15.253h5.70745a8.25058,8.25058,0,0,1,3.06418.54807,6.78878,6.78878,0,0,1,2.37268,1.554,6.93453,6.93453,0,0,1,1.53334,2.41089A8.56071,8.56071,0,0,1,193.16815,26.17932Zm-2.11712,0a7.6552,7.6552,0,0,0-.38333-2.512,5.29521,5.29521,0,0,0-1.08738-1.87315,4.62033,4.62033,0,0,0-1.70371-1.171,5.87822,5.87822,0,0,0-2.22235-.40432h-3.63042V32.12949h3.63042a5.87822,5.87822,0,0,0,2.22235-.40432,4.649,4.649,0,0,0,1.70371-1.16567,5.23949,5.23949,0,0,0,1.08738-1.86813A7.65251,7.65251,0,0,0,191.051,26.17932Z"></path>
<path class="a" d="M208.08068,33.80064h-1.596a.67988.67988,0,0,1-.446-.13843.82135.82135,0,0,1-.25556-.35108l-1.42811-3.683h-6.84242l-1.42812,3.683a.79727.79727,0,0,1-.25556.34043.67416.67416,0,0,1-.446.14908h-1.596l6.0983-15.253h2.09707Zm-9.9943-5.66267h5.69492l-2.39523-6.20541a11.95151,11.95151,0,0,1-.4585-1.4372c-.07767.29126-.15283.559-.228.80363q-.11275.36737-.218.64422Z"></path>
<path class="a" d="M223.22621,26.17932a8.61321,8.61321,0,0,1-.54118,3.119,6.95526,6.95526,0,0,1-1.53334,2.40556,6.82452,6.82452,0,0,1-2.37268,1.54869,8.264,8.264,0,0,1-3.06669.54808h-5.70494v-15.253h5.70494a8.264,8.264,0,0,1,3.06669.54807,6.78887,6.78887,0,0,1,2.37268,1.554,7.00764,7.00764,0,0,1,1.53334,2.41089A8.61391,8.61391,0,0,1,223.22621,26.17932Zm-2.11712,0a7.6552,7.6552,0,0,0-.38333-2.512,5.29079,5.29079,0,0,0-1.08487-1.87315,4.641,4.641,0,0,0-1.70372-1.171,5.88211,5.88211,0,0,0-2.22485-.40432H212.0819V32.12949h3.63042a5.88211,5.88211,0,0,0,2.22485-.40432,4.66984,4.66984,0,0,0,1.70372-1.16567,5.23513,5.23513,0,0,0,1.08487-1.86813A7.65251,7.65251,0,0,0,221.10909,26.17932Z"></path>
<path class="a" d="M235.43534,18.54768v1.68179h-7.32347v5.06636h5.93043v1.61791h-5.93043v5.2051h7.32347v1.6818h-9.398v-15.253Z"></path>
<path class="a" d="M96.62758,46.06363a8.56023,8.56023,0,0,1-.54368,3.119,6.73962,6.73962,0,0,1-3.906,3.95425,8.2506,8.2506,0,0,1-3.06419.54807H83.40625V38.432h5.70744a8.2506,8.2506,0,0,1,3.06419.54807,6.78874,6.78874,0,0,1,2.37267,1.554A6.93451,6.93451,0,0,1,96.0839,42.945,8.561,8.561,0,0,1,96.62758,46.06363Zm-2.11711,0a7.65484,7.65484,0,0,0-.38334-2.512,5.29525,5.29525,0,0,0-1.08737-1.87315,4.62025,4.62025,0,0,0-1.70372-1.171,5.87818,5.87818,0,0,0-2.22235-.40432H85.48328V52.0138h3.63041a5.87818,5.87818,0,0,0,2.22235-.40432,4.649,4.649,0,0,0,1.70372-1.16567,5.23966,5.23966,0,0,0,1.08737-1.86814A7.65222,7.65222,0,0,0,94.51047,46.06363Z"></path>
<path class="a" d="M113.60461,46.06363a8.7748,8.7748,0,0,1-.54368,3.14561,7.19475,7.19475,0,0,1-1.53084,2.46381,6.85945,6.85945,0,0,1-2.38019,1.60225,8.5502,8.5502,0,0,1-6.13589,0,6.852,6.852,0,0,1-2.37267-1.60225A7.16235,7.16235,0,0,1,99.108,49.20924a9.37084,9.37084,0,0,1,0-6.29091,7.22267,7.22267,0,0,1,1.53335-2.46944,6.88145,6.88145,0,0,1,2.37267-1.61258,8.47621,8.47621,0,0,1,6.13589,0,6.88865,6.88865,0,0,1,2.38019,1.61258,7.25557,7.25557,0,0,1,1.53084,2.46944A8.77557,8.77557,0,0,1,113.60461,46.06363Zm-2.11712,0a7.7515,7.7515,0,0,0-.38333-2.52269,5.33769,5.33769,0,0,0-1.08737-1.88912,4.71128,4.71128,0,0,0-1.70121-1.187,6.19857,6.19857,0,0,0-4.45973,0,4.73973,4.73973,0,0,0-1.70873,1.187,5.2723,5.2723,0,0,0-1.09238,1.88912,8.47484,8.47484,0,0,0,0,5.04006,5.27948,5.27948,0,0,0,1.09238,1.88411,4.68131,4.68131,0,0,0,1.70873,1.18164,6.27386,6.27386,0,0,0,4.45973,0,4.65318,4.65318,0,0,0,1.70121-1.18164,5.34519,5.34519,0,0,0,1.08737-1.88411A7.69981,7.69981,0,0,0,111.48749,46.06363Z"></path>
<path class="a" d="M122.79967,47.97969v5.70525h-2.05448V38.432h4.50232a8.44408,8.44408,0,0,1,2.518.3351,4.83924,4.83924,0,0,1,1.77387.95271,3.83719,3.83719,0,0,1,1.04728,1.49012,5.24954,5.24954,0,0,1,.34576,1.948,4.92611,4.92611,0,0,1-.37332,1.948,4.18937,4.18937,0,0,1-1.08988,1.52207,5.04857,5.04857,0,0,1-1.78389.995,7.64692,7.64692,0,0,1-2.43781.35672Zm0-1.6392h2.44784a4.75426,4.75426,0,0,0,1.5609-.23426,3.16992,3.16992,0,0,0,1.13247-.65456,2.70058,2.70058,0,0,0,.69151-1.00594,3.4027,3.4027,0,0,0,.23551-1.28781,2.929,2.929,0,0,0-.89946-2.27778,3.92432,3.92432,0,0,0-2.72093-.8196h-2.44784Z"></path>
<path class="a" d="M147.709,46.06363a8.82959,8.82959,0,0,1-.54369,3.14561,7.2002,7.2002,0,0,1-1.53334,2.46381,6.84918,6.84918,0,0,1-2.37769,1.60225,8.55694,8.55694,0,0,1-6.13839,0,6.852,6.852,0,0,1-2.37267-1.60225,7.23851,7.23851,0,0,1-1.53335-2.46381,9.41162,9.41162,0,0,1,0-6.29091,7.3,7.3,0,0,1,1.53335-2.46944,6.88145,6.88145,0,0,1,2.37267-1.61258,8.48289,8.48289,0,0,1,6.13839,0,6.87838,6.87838,0,0,1,2.37769,1.61258,7.26108,7.26108,0,0,1,1.53334,2.46944A8.83039,8.83039,0,0,1,147.709,46.06363Zm-2.11963,0a7.7515,7.7515,0,0,0-.38333-2.52269,5.33323,5.33323,0,0,0-1.08487-1.88912,4.72067,4.72067,0,0,0-1.70371-1.187,6.19861,6.19861,0,0,0-4.45973,0,4.76139,4.76139,0,0,0-1.70873,1.187,5.30465,5.30465,0,0,0-1.08988,1.88912,8.47506,8.47506,0,0,0,0,5.04006,5.312,5.312,0,0,0,1.08988,1.88411,4.7024,4.7024,0,0,0,1.70873,1.18164,6.2739,6.2739,0,0,0,4.45973,0,4.66246,4.66246,0,0,0,1.70371-1.18164A5.34066,5.34066,0,0,0,145.206,48.581,7.69981,7.69981,0,0,0,145.58937,46.06363Z"></path>
<path class="a" d="M152.79509,47.31981v6.36513h-2.05448V38.432h4.3119a9.43725,9.43725,0,0,1,2.50046.29251,4.771,4.771,0,0,1,1.73879.84622,3.38824,3.38824,0,0,1,1.01722,1.336,4.45522,4.45522,0,0,1,.33072,1.751,4.38819,4.38819,0,0,1-.25556,1.51142,3.984,3.984,0,0,1-.73911,1.26119,4.41268,4.41268,0,0,1-1.18258.9527,5.82522,5.82522,0,0,1-1.581.596,2.17372,2.17372,0,0,1,.68149.64922l4.44971,6.05665h-1.8315a.902.902,0,0,1-.82931-.43626l-3.96114-5.45a1.13981,1.13981,0,0,0-.39336-.367,1.411,1.411,0,0,0-.63889-.11181Zm0-1.50077h2.15971a5.24237,5.24237,0,0,0,1.591-.21829,3.22944,3.22944,0,0,0,1.15-.61729,2.59168,2.59168,0,0,0,.699-.9527,3.12428,3.12428,0,0,0,.233-1.22423,2.43308,2.43308,0,0,0-.89946-2.05417,4.346,4.346,0,0,0-2.67584-.69182h-2.25742Z"></path>
<path class="a" d="M174.074,38.432v1.735h-4.92825V53.68494h-2.0645V40.167h-4.9508V38.432Z"></path>
<path class="a" d="M189.36987,46.06363a8.82959,8.82959,0,0,1-.54369,3.14561,7.2002,7.2002,0,0,1-1.53334,2.46381,6.84918,6.84918,0,0,1-2.37769,1.60225,8.55694,8.55694,0,0,1-6.13839,0,6.852,6.852,0,0,1-2.37267-1.60225,7.23836,7.23836,0,0,1-1.53335-2.46381,9.41162,9.41162,0,0,1,0-6.29091,7.29981,7.29981,0,0,1,1.53335-2.46944,6.88145,6.88145,0,0,1,2.37267-1.61258,8.48289,8.48289,0,0,1,6.13839,0,6.87838,6.87838,0,0,1,2.37769,1.61258,7.26108,7.26108,0,0,1,1.53334,2.46944A8.83039,8.83039,0,0,1,189.36987,46.06363Zm-2.11963,0a7.75177,7.75177,0,0,0-.38333-2.52269,5.33323,5.33323,0,0,0-1.08487-1.88912,4.72062,4.72062,0,0,0-1.70372-1.187,6.19858,6.19858,0,0,0-4.45972,0,4.7613,4.7613,0,0,0-1.70873,1.187A5.30465,5.30465,0,0,0,176.82,43.54094a8.47506,8.47506,0,0,0,0,5.04006,5.312,5.312,0,0,0,1.08988,1.88411,4.70232,4.70232,0,0,0,1.70873,1.18164,6.27387,6.27387,0,0,0,4.45972,0,4.66241,4.66241,0,0,0,1.70372-1.18164,5.34066,5.34066,0,0,0,1.08487-1.88411A7.70008,7.70008,0,0,0,187.25024,46.06363Z"></path>
<path class="a" d="M0,10.278V61.9437H60.08921V10.278Zm42.46892,8.90266H41.15716a2.16335,2.16335,0,0,0-1.99344,1.0349,6.30366,6.30366,0,0,0-.63029,3.19787V42.2615q0,5.74453-3.3053,9.021-3.30757,3.27723-10.01686,3.27415-6.20911,0-9.91742-3.3488a11.77306,11.77306,0,0,1-3.7083-9.19842V19.18064H7.65006v-.90716h15.8945v.90716H19.45663v22.1721q0,5.54605,1.84242,8.467c1.22942,1.94832,3.57143,3.23368,6.99023,2.92243A8.30875,8.30875,0,0,0,34.24936,50.12q2.57472-2.619,2.57386-7.55669V23.41341a5.55722,5.55722,0,0,0-.73134-3.24926,2.1583,2.1583,0,0,0-2.15215-.98351H32.47694v-.90716h9.992Zm8.008,34.06262a3.626,3.626,0,1,1,1.03794-2.53966A3.45644,3.45644,0,0,1,50.47687,53.24326Z"></path>
</svg>